<svg xmlns="http://www.w3.org/2000/svg" viewBox="0 0 907 532" width="907" height="532" role="img" aria-label="Favour Ohanekwu">
<title>Favour Ohanekwu</title>
<desc>What I build: Coldtea, the agentic dev environment for the entire software lifecycle, and PR Lens, the layer that draws every pull request so humans can keep up.</desc>
<style>text{font-family:-apple-system, BlinkMacSystemFont, "Segoe UI", "Noto Sans", Helvetica, Arial, sans-serif}.lanebox{fill:#f6f8fa}.lanelabel{font-size:10px;font-weight:700;letter-spacing:.12em;fill:#59636e}.card{fill:#ffffff;stroke:#d1d9e0;stroke-width:1}.card-added{stroke:#1a7f37;stroke-opacity:.55}.card-modified{stroke:#9a6700;stroke-opacity:.5}.ghost{opacity:.55}.ghost .card{stroke:#d1242f;stroke-dasharray:4 3;stroke-opacity:.6}.context{opacity:.82}.ntitle{font-weight:600;fill:#1f2328}.strike{text-decoration:line-through}.nsub{font-size:9.5px;fill:#59636e;font-family:ui-monospace, SFMono-Regular, "SF Mono", Menlo, Consolas, monospace}.chip{fill:#f6f8fa}.glyph{fill:#59636e}.glyph-stroke{stroke:#59636e;stroke-width:1.4;fill:none}.bdg text{font-size:8.5px;font-weight:700;letter-spacing:.06em}.bdg rect{stroke-width:1}.bdg-added rect{fill:#dafbe1;stroke:rgba(31,136,61,.4)}.bdg-added text{fill:#1a7f37}.bdg-modified rect{fill:#fff8c5;stroke:rgba(154,103,0,.35)}.bdg-modified text{fill:#9a6700}.bdg-removed rect{fill:#ffebe9;stroke:rgba(209,36,47,.35)}.bdg-removed text{fill:#d1242f}.bdg-neutral rect{fill:#f6f8fa;stroke:#d1d9e0}.bdg-neutral text{fill:#59636e}.edge{fill:none;stroke-width:1.5}.edge-added{stroke:#1a7f37}.edge-modified{stroke:#9a6700}.edge-removed{stroke:#d1242f;stroke-dasharray:5 4;opacity:.7}.edge-neutral{stroke:#8c959f}.hero{stroke-width:2.25}.faded{opacity:.45}.glow{fill:none;stroke-width:7;opacity:.14}.msg-self{font-size:11px;fill:#1f2328}.lpill{fill:#ffffff;stroke:#d8dee4;stroke-width:1}.ltext{font-size:9.5px;font-weight:600;fill:#59636e}.ltext-added{fill:#1a7f37}.ltext-modified{fill:#9a6700}.ltext-removed{fill:#d1242f}.cardsh{filter:drop-shadow(0 1px 2px rgba(31,35,40,.14))}.lifeline{stroke:#d1d9e0;stroke-width:1;stroke-dasharray:3 4}.actbar{fill:#dafbe1;stroke:rgba(31,136,61,.4)}.msg{fill:none;stroke-width:1.5}.msg-return{stroke-dasharray:4 3;opacity:.8}.msg-strong{stroke-width:2.25}</style>
<defs><pattern id="dots" width="18" height="18" patternUnits="userSpaceOnUse"><circle cx="1.5" cy="1.5" r="1" fill="rgba(140,149,159,.35)"/></pattern><marker id="mk-added" viewBox="0 0 10 10" refX="8" refY="5" markerWidth="6.5" markerHeight="6.5" orient="auto-start-reverse"><path d="M0,0 L10,5 L0,10 z" fill="#1a7f37"/></marker><marker id="mko-added" viewBox="0 0 10 10" refX="10" refY="5" markerWidth="6.5" markerHeight="6.5" orient="auto-start-reverse"><path d="M2,1 L10,5 L2,9" fill="none" stroke="#1a7f37" stroke-width="1.6" stroke-linecap="round" stroke-linejoin="round"/></marker><marker id="mk-modified" viewBox="0 0 10 10" refX="8" refY="5" markerWidth="6.5" markerHeight="6.5" orient="auto-start-reverse"><path d="M0,0 L10,5 L0,10 z" fill="#9a6700"/></marker><marker id="mko-modified" viewBox="0 0 10 10" refX="10" refY="5" markerWidth="6.5" markerHeight="6.5" orient="auto-start-reverse"><path d="M2,1 L10,5 L2,9" fill="none" stroke="#9a6700" stroke-width="1.6" stroke-linecap="round" stroke-linejoin="round"/></marker><marker id="mk-removed" viewBox="0 0 10 10" refX="8" refY="5" markerWidth="6.5" markerHeight="6.5" orient="auto-start-reverse"><path d="M0,0 L10,5 L0,10 z" fill="#d1242f"/></marker><marker id="mko-removed" viewBox="0 0 10 10" refX="10" refY="5" markerWidth="6.5" markerHeight="6.5" orient="auto-start-reverse"><path d="M2,1 L10,5 L2,9" fill="none" stroke="#d1242f" stroke-width="1.6" stroke-linecap="round" stroke-linejoin="round"/></marker><marker id="mk-neutral" viewBox="0 0 10 10" refX="8" refY="5" markerWidth="6.5" markerHeight="6.5" orient="auto-start-reverse"><path d="M0,0 L10,5 L0,10 z" fill="#8c959f"/></marker><marker id="mko-neutral" viewBox="0 0 10 10" refX="10" refY="5" markerWidth="6.5" markerHeight="6.5" orient="auto-start-reverse"><path d="M2,1 L10,5 L2,9" fill="none" stroke="#8c959f" stroke-width="1.6" stroke-linecap="round" stroke-linejoin="round"/></marker></defs>
<rect x="0" y="0" width="907" height="532" rx="12" fill="#ffffff"/>
<rect x="0" y="0" width="907" height="532" rx="12" fill="url(#dots)"/>
<g transform="translate(46.27,0)"><g><rect class="lanebox" x="16" y="44" width="404" height="472" rx="12"/>
<text class="lanelabel" x="32" y="68">BUILDING · COLDTEA.AI</text>
<rect class="lanebox" x="440" y="44" width="404" height="472" rx="12"/>
<text class="lanelabel" x="456" y="68">BUILDING · PRLENS.DEV</text></g>
<g><path class="edge edge-added" d="M218,154 L218,206" marker-end="url(#mk-added)"/>
<circle r="2.6" fill="#1a7f37"><animateMotion dur="1.6s" repeatCount="indefinite" path="M218,154 L218,206"/></circle>
<path class="glow" stroke="#1a7f37" d="M218,268 L218,320"/>
<path class="edge edge-added hero" d="M218,268 L218,320" marker-end="url(#mk-added)"/>
<circle r="3" fill="#1a7f37"><animateMotion dur="2.1s" repeatCount="indefinite" path="M218,268 L218,320"/></circle>
<circle r="3" fill="#1a7f37"><animateMotion dur="2.1s" begin="-1.4s" repeatCount="indefinite" path="M218,268 L218,320"/></circle>
<circle r="3" fill="#1a7f37"><animateMotion dur="2.1s" begin="-0.7s" repeatCount="indefinite" path="M218,268 L218,320"/></circle>
<path class="edge edge-added" d="M404,123 L417,123 C424.18,123 430,128.82 430,136 L430,224 C430,231.18 435.82,237 443,237 L456,237" marker-end="url(#mk-added)"/>
<circle r="2.6" fill="#1a7f37"><animateMotion dur="1.6s" repeatCount="indefinite" path="M404,123 L417,123 C424.18,123 430,128.82 430,136 L430,224 C430,231.18 435.82,237 443,237 L456,237"/></circle>
<path class="edge edge-modified" d="M642,268 L642,320" marker-end="url(#mk-modified)"/>
<circle r="2.6" fill="#9a6700"><animateMotion dur="1.6s" repeatCount="indefinite" path="M642,268 L642,320"/></circle>
<path class="edge edge-added" d="M218,382 L218,434" marker-end="url(#mk-added)"/>
<circle r="2.6" fill="#1a7f37"><animateMotion dur="1.6s" repeatCount="indefinite" path="M218,382 L218,434"/></circle>
<path class="edge edge-added" d="M32,465 L19,465 C11.82,465 6,459.18 6,452 L6,136 C6,128.82 11.82,123 19,123 L32,123" marker-end="url(#mk-added)"/>
<circle r="2.6" fill="#1a7f37"><animateMotion dur="1.6s" repeatCount="indefinite" path="M32,465 L19,465 C11.82,465 6,459.18 6,452 L6,136 C6,128.82 11.82,123 19,123 L32,123"/></circle></g>
<g><g class="cardsh"><rect class="card card-modified" x="32" y="92" width="372" height="62" rx="10"/>
<rect class="chip" x="46" y="110" width="26" height="26" rx="7"/><g><rect class="glyph-stroke" x="52.5" y="116.5" width="13" height="13" rx="3"/>
<circle class="glyph" cx="59" cy="123" r="2"/></g>
<text class="ntitle" x="82" y="119" font-size="13">your agents</text>
<text class="nsub" x="82" y="137">write the code</text>
<g class="bdg bdg-modified"><rect x="330.38" y="84" width="66.62" height="16" rx="8"/><text x="363.69" y="95" text-anchor="middle">CHANGED</text></g></g>
<g class="cardsh"><rect class="card card-added" x="32" y="206" width="372" height="62" rx="10"/>
<rect class="chip" x="46" y="224" width="26" height="26" rx="7"/><g><rect class="glyph-stroke" x="52.5" y="230.5" width="13" height="13" rx="3"/>
<circle class="glyph" cx="59" cy="237" r="2"/></g>
<text class="ntitle" x="82" y="233" font-size="13">QA Agent</text>
<text class="nsub" x="82" y="251">clicks through every PR in a real browser</text>
<g class="bdg bdg-added"><rect x="356.45" y="198" width="40.55" height="16" rx="8"/><text x="376.73" y="209" text-anchor="middle">NEW</text></g></g>
<g class="cardsh context"><rect class="card" x="32" y="320" width="372" height="62" rx="10"/>
<rect class="chip" x="46" y="338" width="26" height="26" rx="7"/><g><rect class="glyph-stroke" x="51" y="345" width="16" height="12" rx="2"/>
<path class="glyph-stroke" d="M51,347 l8,6 8,-6"/></g>
<text class="ntitle" x="82" y="347" font-size="13">production</text>
<text class="nsub" x="82" y="365">nothing breaks</text></g>
<g class="cardsh"><rect class="card card-added" x="32" y="434" width="372" height="62" rx="10"/>
<rect class="chip" x="46" y="452" width="26" height="26" rx="7"/><g><rect class="glyph-stroke" x="52.5" y="458.5" width="13" height="13" rx="3"/>
<circle class="glyph" cx="59" cy="465" r="2"/></g>
<text class="ntitle" x="82" y="461" font-size="13">Monitoring</text>
<text class="nsub" x="82" y="479">notices before your users do</text>
<g class="bdg bdg-added"><rect x="356.45" y="426" width="40.55" height="16" rx="8"/><text x="376.73" y="437" text-anchor="middle">NEW</text></g></g>
<g class="cardsh"><rect class="card card-added" x="456" y="206" width="372" height="62" rx="10"/>
<rect class="chip" x="470" y="224" width="26" height="26" rx="7"/><g><rect class="glyph-stroke" x="476.5" y="230.5" width="13" height="13" rx="3"/>
<circle class="glyph" cx="483" cy="237" r="2"/></g>
<text class="ntitle" x="506" y="233" font-size="13">PR Lens</text>
<text class="nsub" x="506" y="251">draws the pull request</text>
<g class="bdg bdg-added"><rect x="780.45" y="198" width="40.55" height="16" rx="8"/><text x="800.73" y="209" text-anchor="middle">NEW</text></g></g>
<g class="cardsh"><rect class="card card-modified" x="456" y="320" width="372" height="62" rx="10"/>
<rect class="chip" x="470" y="338" width="26" height="26" rx="7"/><g><rect class="glyph-stroke" x="475" y="345" width="16" height="12" rx="2"/>
<path class="glyph-stroke" d="M475,347 l8,6 8,-6"/></g>
<text class="ntitle" x="506" y="347" font-size="13">your pull request</text>
<text class="nsub" x="506" y="365">understood at a glance</text>
<g class="bdg bdg-modified"><rect x="754.38" y="312" width="66.62" height="16" rx="8"/><text x="787.69" y="323" text-anchor="middle">CHANGED</text></g></g></g>
<g><g><rect class="lpill" x="170.27" y="172.5" width="95.47" height="15" rx="7.5"/><text class="ltext ltext-added" x="218" y="183.5" text-anchor="middle">every pull request</text></g>
<g><rect class="lpill" x="166.06" y="286.5" width="103.89" height="15" rx="7.5"/><text class="ltext ltext-added" x="218" y="297.5" text-anchor="middle">ship at agent speed</text></g>
<g><rect class="lpill" x="388.42" y="172.5" width="83.17" height="15" rx="7.5"/><text class="ltext ltext-added" x="430" y="183.5" text-anchor="middle">built at Coldtea</text></g>
<g><rect class="lpill" x="578.59" y="286.5" width="126.82" height="15" rx="7.5"/><text class="ltext ltext-modified" x="642" y="297.5" text-anchor="middle">one diagram, every push</text></g>
<g><rect class="lpill" x="173.35" y="400.5" width="89.31" height="15" rx="7.5"/><text class="ltext ltext-added" x="218" y="411.5" text-anchor="middle">always watching</text></g>
<g><rect class="lpill" x="-30.26" y="286.5" width="72.53" height="15" rx="7.5"/><text class="ltext ltext-added" x="6" y="297.5" text-anchor="middle">back to build</text></g></g></g>
</svg>